<?xml version="1.0" standalone="no"?>
<!DOCTYPE svg PUBLIC "-//W3C//DTD SVG 20010904//EN"
 "http://www.w3.org/TR/2001/REC-SVG-20010904/DTD/svg10.dtd">
<svg version="1.0" xmlns="http://www.w3.org/2000/svg"
 width="633.000000pt" height="322.000000pt" viewBox="0 0 633.000000 322.000000"
 preserveAspectRatio="xMidYMid meet">

<g transform="translate(0.000000,322.000000) scale(0.100000,-0.100000)"
fill="#000000" stroke="none">
<path d="M0 1610 l0 -1610 3165 0 3165 0 0 1610 0 1610 -3165 0 -3165 0 0
-1610z m2092 461 c234 -60 404 -237 454 -472 20 -94 14 -239 -15 -329 -59
-189 -214 -342 -406 -403 -56 -18 -94 -22 -190 -22 -140 0 -219 20 -324 82
-317 188 -398 626 -170 928 141 187 413 277 651 216z m1810 -102 c40 -21 48
-66 48 -267 0 -104 -3 -203 -6 -221 -10 -50 -46 -81 -94 -81 -96 0 -112 34
-118 250 -5 197 6 275 43 308 29 24 91 30 127 11z m-962 -24 c0 -23 -4 -25
-45 -25 l-45 0 0 -95 0 -95 40 0 c38 0 40 -2 40 -30 0 -28 -2 -30 -40 -30
l-40 0 0 -95 0 -95 45 0 c45 0 45 0 45 -35 l0 -35 -80 0 -80 0 0 280 0 280 80
0 c79 0 80 0 80 -25z m200 -155 l37 -175 15 70 c9 39 26 118 38 178 l23 107
33 0 34 0 0 -280 0 -280 -35 0 -35 0 -1 123 -1 122 -14 -70 c-8 -38 -19 -94
-25 -122 -9 -45 -14 -53 -33 -53 -21 0 -24 8 -43 113 l-21 112 -1 -112 -1
-113 -35 0 -35 0 0 281 0 280 32 -3 32 -3 36 -175z m473 162 c38 -42 44 -199
11 -263 -15 -31 -32 -39 -80 -39 l-34 0 0 -120 0 -120 -40 0 -40 0 0 280 0
280 83 0 c69 0 87 -3 100 -18z m511 -29 c3 -27 8 -121 12 -211 4 -89 8 -161 9
-160 2 2 10 75 19 163 27 275 23 257 60 253 l31 -3 21 -205 20 -205 7 90 c4
50 10 143 13 208 l6 117 40 0 39 0 -5 -42 c-6 -40 -46 -489 -46 -509 0 -5 -20
-9 -44 -9 -50 0 -47 -9 -67 158 -7 56 -14 100 -17 98 -2 -3 -12 -60 -21 -128
l-16 -123 -46 -3 -45 -3 -22 263 c-13 145 -22 271 -22 281 0 13 8 17 34 17 33
0 34 -1 40 -47z m536 22 c0 -23 -4 -25 -45 -25 l-45 0 0 -95 0 -95 41 0 c38 0
40 -1 37 -27 -3 -24 -8 -28 -40 -31 l-38 -3 0 -95 0 -94 45 0 c45 0 45 0 45
-35 l0 -35 -80 0 -80 0 0 280 0 280 80 0 c79 0 80 0 80 -25z m279 1 c28 -30
38 -120 21 -186 -14 -53 -14 -59 -1 -130 5 -30 12 -92 16 -137 l6 -83 -34 0
c-32 0 -35 3 -41 38 -3 20 -6 62 -6 92 0 30 -5 72 -11 93 -8 30 -15 37 -34 37
l-25 0 0 -130 0 -130 -40 0 -40 0 0 280 0 280 83 0 c75 0 86 -2 106 -24z
m-2041 -837 c4 -108 -9 -154 -47 -167 -32 -11 -67 1 -85 30 -15 24 0 34 22 15
28 -26 61 -21 72 9 6 14 10 66 10 115 0 68 3 90 13 87 8 -3 13 -33 15 -89z
m243 72 c22 -18 24 -27 24 -110 0 -81 -2 -93 -23 -113 -28 -28 -93 -29 -122
-3 -17 16 -20 31 -20 116 0 90 2 99 22 113 31 22 91 20 119 -3z m240 8 c16 -8
20 -19 18 -52 -1 -23 3 -52 9 -64 19 -34 15 -90 -8 -113 -15 -15 -33 -20 -75
-20 l-55 0 0 130 0 130 46 0 c25 0 54 -5 65 -11z m419 -9 c15 -15 20 -33 20
-75 0 -67 -22 -95 -75 -95 -33 0 -35 -2 -35 -35 0 -24 -5 -35 -15 -35 -13 0
-15 21 -15 130 l0 130 50 0 c37 0 55 -5 70 -20z m250 0 c17 -17 20 -33 20
-106 0 -47 -4 -94 -10 -104 -24 -44 -126 -45 -150 0 -6 10 -10 56 -10 101 0
71 3 86 22 106 29 31 99 32 128 3z m241 1 c20 -16 24 -29 24 -74 0 -39 -5 -61
-18 -75 -17 -19 -17 -22 -3 -51 20 -37 20 -41 1 -41 -9 0 -23 16 -32 35 -12
25 -23 35 -40 35 -20 0 -23 -5 -23 -35 0 -24 -5 -35 -15 -35 -13 0 -15 20 -15
123 0 68 3 127 7 130 14 15 91 7 114 -12z m264 4 c0 -5 -13 -12 -30 -15 l-30
-5 -3 -113 c-2 -90 -5 -112 -17 -112 -12 0 -15 21 -15 115 l0 115 -30 0 c-20
0 -30 5 -30 15 0 13 13 15 78 13 42 -2 77 -7 77 -13z m215 1 c0 -11 -14 -16
-47 -18 -47 -3 -48 -3 -51 -40 -3 -37 -3 -37 40 -40 30 -2 43 -7 43 -18 0 -10
-13 -16 -42 -18 -43 -3 -43 -3 -43 -43 l0 -39 50 0 c38 0 50 -4 50 -15 0 -12
-14 -15 -65 -15 l-65 0 0 123 c0 68 3 127 7 130 3 4 33 7 65 7 44 0 58 -4 58
-14z m130 -101 l0 -115 50 0 c38 0 50 -4 50 -15 0 -12 -14 -15 -65 -15 l-65 0
0 123 c0 68 3 127 7 130 18 19 23 -3 23 -108z m100 -390 l0 -25 -1845 0 -1845
0 0 25 0 25 1845 0 1845 0 0 -25z"/>
<path d="M1830 2039 c-248 -47 -424 -227 -470 -478 -22 -119 -2 -242 59 -366
170 -344 654 -419 929 -143 110 109 166 249 166 413 0 115 -17 185 -71 287
-109 208 -376 333 -613 287z m238 -295 c12 -8 22 -24 22 -35 0 -17 7 -19 79
-19 64 0 83 -4 105 -21 l26 -20 0 -214 0 -214 -26 -20 c-26 -20 -38 -21 -346
-21 l-319 0 -24 25 c-25 24 -25 25 -25 227 1 144 4 208 13 219 22 29 55 39
131 39 64 0 76 3 76 17 0 9 7 25 17 35 14 15 32 18 132 18 89 0 122 -4 139
-16z"/>
<path d="M1820 1700 c0 -6 45 -10 115 -10 70 0 115 4 115 10 0 6 -45 10 -115
10 -70 0 -115 -4 -115 -10z"/>
<path d="M1612 1628 c-7 -7 -12 -28 -12 -48 l0 -36 154 -42 c85 -23 167 -42
182 -42 15 0 95 19 176 41 l149 42 -3 46 -3 46 -315 3 c-237 2 -319 -1 -328
-10z"/>
<path d="M1600 1375 c0 -99 3 -127 16 -139 13 -14 56 -16 310 -16 185 0 303 4
315 10 17 10 19 22 19 135 0 87 -3 125 -11 125 -7 0 -63 -14 -125 -31 -111
-31 -114 -32 -114 -60 0 -35 -24 -49 -82 -49 -51 0 -68 13 -68 51 0 19 -6 28
-22 33 -13 3 -71 19 -130 35 l-108 29 0 -123z"/>
<path d="M1900 1405 c0 -10 11 -15 35 -15 24 0 35 5 35 15 0 10 -11 15 -35 15
-24 0 -35 -5 -35 -15z"/>
<path d="M3813 1893 c-5 -16 -8 -110 -8 -210 0 -151 3 -185 16 -198 19 -20 45
-11 53 18 10 39 7 377 -4 398 -16 29 -48 24 -57 -8z"/>
<path d="M3510 1815 l0 -105 29 0 c28 0 30 3 37 46 8 58 -2 145 -18 156 -7 4
-21 8 -30 8 -16 0 -18 -12 -18 -105z"/>
<path d="M4830 1825 c0 -84 2 -95 18 -95 39 0 47 17 47 95 0 78 -8 95 -47 95
-16 0 -18 -11 -18 -95z"/>
<path d="M3042 1158 c-16 -16 -16 -160 0 -176 13 -13 47 -16 72 -6 13 5 16 23
16 88 0 50 -5 87 -12 94 -15 15 -61 15 -76 0z"/>
<path d="M3300 1140 c0 -28 3 -30 35 -30 30 0 35 3 35 24 0 24 -16 36 -51 36
-14 0 -19 -7 -19 -30z"/>
<path d="M3300 1020 l0 -50 35 0 c44 0 65 34 47 75 -9 20 -19 25 -47 25 l-35
0 0 -50z"/>
<path d="M3710 1105 c0 -62 1 -65 24 -65 34 0 56 25 56 65 0 40 -22 65 -56 65
-23 0 -24 -3 -24 -65z"/>
<path d="M3946 1154 c-11 -11 -16 -35 -16 -80 0 -84 11 -104 55 -104 44 0 55
20 55 104 0 71 -14 96 -55 96 -13 0 -31 -7 -39 -16z"/>
<path d="M4207 1163 c-11 -10 -8 -111 3 -118 6 -4 24 -4 40 0 29 6 30 9 30 60
0 39 -4 54 -16 59 -21 8 -49 8 -57 -1z"/>
</g>
</svg>
