<?xml version="1.0" standalone="no"?>
<!DOCTYPE svg PUBLIC "-//W3C//DTD SVG 20010904//EN"
 "http://www.w3.org/TR/2001/REC-SVG-20010904/DTD/svg10.dtd">
<svg version="1.0" xmlns="http://www.w3.org/2000/svg"
 width="2000.000000pt" height="1500.000000pt" viewBox="0 0 2000.000000 1500.000000"
 preserveAspectRatio="xMidYMid meet">

<g transform="translate(0.000000,1500.000000) scale(0.100000,-0.100000)"
fill="#000000" stroke="none">
<path d="M3937 9455 c-162 -31 -326 -116 -450 -233 -272 -260 -349 -670 -187
-1010 108 -228 283 -384 519 -462 511 -170 1046 146 1147 676 21 115 14 287
-16 394 -49 173 -165 348 -301 455 -89 70 -226 138 -334 166 -106 27 -275 33
-378 14z"/>
<path d="M6097 9192 c-8 -9 -20 -30 -26 -45 -8 -20 -11 -522 -11 -1648 0
-1708 -1 -1661 43 -1697 23 -19 54 -6 75 31 16 30 17 134 20 1645 1 1118 -1
1626 -8 1654 -12 41 -41 78 -63 78 -8 0 -21 -8 -30 -18z"/>
<path d="M11660 8900 c-167 -43 -339 -155 -435 -281 -187 -247 -220 -572 -85
-846 107 -218 295 -366 538 -424 129 -31 292 -24 421 20 134 45 222 100 321
200 142 143 217 315 227 517 19 386 -228 718 -605 815 -102 26 -278 25 -382
-1z m366 -60 c553 -139 750 -814 356 -1224 -227 -235 -581 -292 -872 -140
-170 89 -293 237 -360 434 -30 90 -38 267 -16 370 19 92 88 235 150 312 103
128 266 223 451 262 60 12 217 5 291 -14z"/>
<path d="M11735 8785 c-249 -46 -442 -216 -522 -460 -36 -111 -38 -275 -4
-385 70 -230 259 -412 483 -465 82 -19 247 -19 323 0 234 59 426 250 485 481
24 94 26 244 5 329 -67 264 -293 467 -559 504 -94 13 -121 13 -211 -4z m269
-70 c195 -51 360 -206 428 -404 19 -56 23 -85 22 -191 0 -109 -4 -134 -26
-192 -75 -199 -233 -342 -433 -393 -241 -61 -515 49 -654 265 -144 223 -119
530 61 734 73 84 210 162 333 189 49 11 215 6 269 -8z"/>
<path d="M11733 8656 c-146 -34 -287 -142 -356 -274 -135 -256 -57 -555 188
-714 163 -106 392 -111 562 -11 109 63 197 173 241 297 33 95 35 239 3 337
-51 161 -182 292 -347 350 -77 26 -209 33 -291 15z m197 -57 c174 -27 329
-161 381 -330 26 -84 26 -210 -1 -290 -50 -147 -155 -254 -299 -305 -123 -44
-296 -27 -405 39 -114 70 -205 208 -227 343 -39 242 131 486 374 539 78 17 96
17 177 4z"/>
<path d="M11756 8530 c-99 -25 -209 -107 -260 -195 -147 -249 7 -568 297 -618
125 -21 259 24 353 117 200 201 144 536 -111 662 -63 31 -85 37 -157 40 -45 2
-100 -1 -122 -6z m244 -86 c143 -64 224 -218 199 -376 -47 -288 -401 -394
-602 -179 -70 75 -90 127 -91 236 -1 78 2 97 26 145 46 93 135 171 226 197 69
19 169 10 242 -23z"/>
<path d="M6580 8125 l0 -735 30 0 30 0 0 735 0 735 -30 0 -30 0 0 -735z"/>
<path d="M6710 8125 l0 -735 30 0 30 0 0 735 0 735 -30 0 -30 0 0 -735z"/>
<path d="M6832 8128 l3 -733 33 -3 32 -3 0 735 0 736 -35 0 -35 0 2 -732z"/>
<path d="M6960 8125 l0 -735 375 0 375 0 0 30 0 30 -340 0 -340 0 0 35 0 35
340 0 340 0 0 30 0 30 -340 0 -340 0 0 35 0 35 340 0 340 0 0 30 0 30 -340 0
-340 0 0 130 0 130 170 0 170 0 0 30 0 30 -170 0 -170 0 0 30 0 30 170 0 170
0 0 35 0 35 -170 0 -170 0 0 30 0 30 170 0 170 0 0 35 0 35 -170 0 -170 0 0
125 0 125 338 2 337 3 0 30 0 30 -337 3 -338 2 0 30 0 30 340 0 340 0 0 30 0
30 -340 0 -340 0 0 35 0 35 340 0 340 0 0 30 0 30 -375 0 -375 0 0 -735z"/>
<path d="M7862 8128 l3 -733 32 -3 33 -3 2 669 3 669 251 -476 c245 -465 252
-476 282 -479 18 -2 32 1 32 7 0 6 -127 251 -282 546 l-282 535 -38 0 -38 0 2
-732z"/>
<path d="M8042 8798 c19 -35 148 -280 288 -545 l254 -483 33 0 c18 0 33 3 32
8 0 4 -127 248 -282 542 l-283 535 -38 3 -39 3 35 -63z"/>
<path d="M8160 8855 c0 -6 536 -1030 556 -1062 16 -26 65 -32 82 -10 5 6 119
219 252 472 133 253 246 464 251 469 5 6 9 -268 9 -662 l0 -672 30 0 30 0 0
735 0 735 -37 0 -38 -1 -264 -504 c-145 -278 -266 -505 -270 -505 -3 0 -125
228 -271 505 l-265 505 -32 0 c-18 0 -33 -2 -33 -5z"/>
<path d="M8997 8838 c-8 -13 -83 -153 -167 -313 -84 -159 -161 -306 -172 -326
-20 -35 -20 -36 0 -67 l19 -32 178 337 c98 186 189 357 202 381 l25 42 -36 0
c-26 0 -39 -6 -49 -22z"/>
<path d="M8940 8454 c-117 -223 -215 -416 -217 -427 -3 -21 22 -66 31 -56 5 5
466 881 466 885 0 2 -15 4 -33 4 l-34 0 -213 -406z"/>
<path d="M9540 8125 l0 -735 30 0 30 0 0 705 0 705 419 0 c243 0 441 -4 472
-10 121 -23 250 -112 319 -220 100 -156 92 -380 -20 -540 -64 -90 -179 -166
-288 -189 -29 -6 -144 -11 -257 -11 l-205 0 0 -31 0 -31 248 4 c231 3 251 5
307 27 221 87 345 270 347 509 0 112 -11 160 -59 257 -44 86 -144 188 -228
232 -117 61 -135 63 -649 63 l-466 0 0 -735z"/>
<path d="M12650 8853 c1 -4 87 -334 193 -733 l192 -725 34 0 34 0 187 705
c103 388 190 717 194 733 6 25 4 27 -26 27 l-33 0 -175 -665 c-96 -366 -177
-665 -180 -665 -3 0 -84 298 -180 663 l-176 662 -32 3 c-18 2 -32 0 -32 -5z"/>
<path d="M12790 8828 c5 -18 70 -265 145 -548 74 -283 139 -524 143 -534 6
-15 11 -5 21 39 l13 59 -133 508 -134 508 -32 0 c-31 0 -31 -1 -23 -32z"/>
<path d="M13022 8448 c60 -227 112 -426 117 -443 8 -29 8 -29 25 26 l17 56
-101 381 c-55 209 -100 383 -100 386 0 3 -15 6 -33 6 l-34 0 109 -412z"/>
<path d="M13050 8850 c0 -13 159 -612 163 -617 3 -2 11 22 19 54 l14 58 -57
215 c-31 118 -62 234 -68 258 -10 37 -15 42 -41 42 -17 0 -30 -4 -30 -10z"/>
<path d="M13546 8808 c-8 -29 -94 -352 -191 -718 -97 -366 -178 -673 -181
-682 -4 -15 1 -18 28 -18 l33 0 188 713 c103 391 190 722 193 735 6 19 3 22
-25 22 -28 0 -31 -4 -45 -52z"/>
<path d="M13681 8823 c-6 -21 -91 -346 -191 -723 -99 -377 -183 -691 -185
-697 -3 -9 7 -13 28 -13 l33 0 192 728 c106 400 192 730 192 735 0 4 -13 7
-30 7 -25 0 -31 -5 -39 -37z"/>
<path d="M13635 8148 c-104 -392 -191 -723 -193 -735 -4 -20 0 -23 26 -23 26
0 32 5 40 33 5 17 40 150 78 294 38 144 72 257 75 250 7 -11 169 -563 169
-573 0 -2 15 -4 34 -4 l33 0 42 158 c23 86 111 416 195 732 l152 575 -29 3
c-16 2 -31 2 -33 0 -2 -2 -38 -135 -81 -296 -42 -161 -80 -286 -84 -279 -5 9
-96 316 -161 545 -8 28 -13 32 -42 32 l-32 0 -189 -712z m314 279 l81 -288
-14 -55 c-8 -31 -16 -58 -18 -60 -2 -2 -43 129 -90 291 l-86 295 16 61 c8 33
18 57 22 52 4 -4 44 -138 89 -296z m7 -514 c6 -33 -12 -133 -25 -133 -4 0 -44
130 -90 289 -83 287 -83 289 -71 343 7 29 15 57 18 62 5 9 154 -490 168 -561z
m-143 20 l85 -293 -16 -61 c-9 -38 -18 -56 -22 -48 -4 8 -44 142 -89 299 l-81
285 16 58 c10 31 18 56 20 55 1 -2 40 -135 87 -295z"/>
<path d="M14162 8132 c-106 -400 -192 -730 -192 -734 0 -5 13 -8 29 -8 20 0
32 6 35 18 3 9 87 325 186 702 100 377 185 700 190 718 8 31 8 32 -23 32 l-32
0 -193 -728z"/>
<path d="M14485 8848 c-6 -15 -385 -1449 -385 -1455 0 -2 14 -3 32 -1 l32 3
186 705 c103 388 190 717 193 733 7 25 5 27 -23 27 -17 0 -33 -6 -35 -12z"/>
<path d="M14606 8808 c-9 -29 -94 -352 -191 -717 -96 -365 -177 -673 -181
-683 -4 -15 0 -18 28 -18 l34 0 192 728 c106 400 192 730 192 735 0 4 -13 7
-30 7 -27 0 -31 -4 -44 -52z"/>
<path d="M14810 8125 l0 -735 30 0 30 0 0 735 0 735 -30 0 -30 0 0 -735z"/>
<path d="M14940 8125 l0 -735 30 0 30 0 0 735 0 735 -30 0 -30 0 0 -735z"/>
<path d="M15060 8124 l0 -735 33 3 32 3 3 733 2 732 -35 0 -35 0 0 -736z"/>
<path d="M15190 8125 l0 -735 370 0 370 0 0 30 0 30 -337 2 -338 3 -3 33 -3
32 340 0 341 0 0 30 0 30 -341 0 -340 0 3 33 3 32 338 3 337 2 0 30 0 30 -340
0 -341 0 3 128 3 127 173 3 172 2 0 30 0 30 -175 0 -175 0 0 30 0 30 175 0
175 0 0 35 0 35 -175 0 -175 0 0 30 0 30 175 0 175 0 0 35 0 35 -175 0 -175 0
0 125 0 125 340 0 340 0 0 35 0 35 -340 0 -340 0 0 30 0 30 340 0 340 0 0 30
0 30 -337 2 -338 3 -3 33 -3 32 340 0 341 0 0 30 0 30 -370 0 -370 0 0 -735z"/>
<path d="M16090 8125 l0 -735 30 0 30 0 2 703 3 702 420 3 c274 1 438 -1 473
-9 133 -27 278 -140 335 -261 118 -249 -19 -557 -284 -639 -52 -16 -93 -19
-290 -19 l-229 0 0 -35 0 -34 117 -3 116 -3 18 -55 c10 -30 39 -121 65 -202
l46 -148 33 0 33 0 -58 183 c-31 100 -60 192 -64 205 -7 19 -4 22 23 22 l30 0
68 -205 68 -205 32 0 32 0 -69 206 c-54 160 -66 206 -55 210 38 15 47 0 118
-208 l71 -208 34 0 c19 0 32 4 30 9 -1 5 -34 102 -73 215 -60 177 -68 208 -55
216 8 6 21 9 29 7 8 -1 44 -92 90 -222 l76 -220 33 -3 c17 -2 32 -1 32 2 0 2
-37 111 -81 242 l-82 237 29 20 c226 158 290 486 139 722 -42 66 -134 149
-206 186 -115 58 -130 59 -641 59 l-468 0 0 -735z"/>
<path d="M9670 8060 l0 -670 30 0 30 0 0 640 0 641 383 -3 c377 -3 383 -3 429
-26 109 -54 189 -157 206 -264 25 -163 -55 -320 -197 -387 -55 -25 -62 -26
-283 -29 l-228 -3 0 -30 0 -30 238 3 c233 3 238 3 295 30 78 37 160 117 197
192 105 217 24 459 -188 563 l-76 38 -418 3 -418 3 0 -671z"/>
<path d="M16220 8060 l0 -670 30 0 30 0 0 640 0 641 383 -3 382 -3 56 -28 c67
-32 142 -109 172 -175 28 -61 29 -174 3 -250 -25 -74 -99 -151 -178 -188 -63
-29 -64 -29 -290 -32 l-228 -4 0 -30 0 -30 238 4 c235 3 238 3 296 31 116 54
187 132 226 248 63 185 -25 389 -208 480 l-67 34 -422 3 -423 3 0 -671z"/>
<path d="M9800 8001 l0 -611 30 0 30 0 0 575 0 575 295 0 c322 0 340 -3 398
-58 50 -47 71 -100 71 -172 0 -82 -30 -141 -92 -185 l-44 -30 -224 -3 -224 -3
0 -35 0 -36 218 4 c178 3 224 7 255 21 65 29 114 75 144 135 37 76 40 194 5
259 -35 66 -78 110 -140 140 l-57 28 -332 3 -333 4 0 -611z"/>
<path d="M16350 8001 l0 -611 30 0 30 0 0 575 0 575 295 0 c322 0 340 -3 398
-58 100 -95 84 -262 -31 -330 -47 -27 -48 -27 -269 -30 l-223 -3 0 -30 0 -30
233 3 c215 3 235 5 272 25 87 47 136 123 143 225 8 119 -52 220 -161 269 -51
23 -61 24 -384 27 l-333 4 0 -611z"/>
<path d="M7990 7958 l0 -568 30 0 30 0 0 513 -1 512 -29 55 -29 55 -1 -567z"/>
<path d="M9207 8465 l-27 -55 0 -510 0 -510 30 0 30 0 0 565 c0 311 -1 565 -3
565 -2 0 -15 -25 -30 -55z"/>
<path d="M9920 7936 l0 -546 35 0 35 0 0 510 0 510 228 0 c215 0 229 -1 250
-20 41 -38 41 -120 1 -156 -19 -17 -42 -19 -225 -22 l-204 -3 0 -30 0 -29 203
0 c173 0 207 3 236 18 53 27 74 63 79 135 3 52 0 67 -20 96 -52 76 -48 76
-349 79 l-269 3 0 -545z"/>
<path d="M16480 7936 l0 -546 30 0 30 0 0 510 0 510 230 0 c217 0 231 -1 250
-20 28 -28 27 -93 -2 -120 -20 -19 -34 -20 -230 -20 l-208 0 0 -30 0 -30 215
0 c239 0 261 5 290 61 9 17 17 53 17 80 2 54 -16 86 -66 123 -26 20 -43 21
-292 24 l-264 3 0 -545z"/>
<path d="M8120 7833 l0 -443 30 0 30 0 0 393 0 392 -30 50 -30 50 0 -442z"/>
<path d="M9077 8221 l-27 -49 0 -391 0 -391 30 0 30 0 0 440 c0 242 -2 440 -3
440 -2 0 -16 -22 -30 -49z"/>
<path d="M8951 7981 l-31 -59 0 -266 0 -266 35 0 35 0 0 325 c0 179 -2 325 -4
325 -2 0 -17 -27 -35 -59z"/>
<path d="M8250 7705 l0 -315 30 0 30 0 0 265 c0 264 0 266 -25 315 -14 28 -28
50 -30 50 -3 0 -5 -142 -5 -315z"/>
<path d="M3175 7373 c-246 -35 -473 -199 -580 -417 -79 -160 -79 -157 -83
-633 l-3 -423 416 0 416 0 -7 23 c-26 80 -36 133 -41 217 -22 365 235 700 612
796 101 25 284 23 390 -5 229 -60 418 -212 520 -416 59 -119 78 -203 79 -340
0 -102 -4 -128 -40 -252 l-6 -23 417 0 417 0 -5 423 c-4 460 -6 480 -66 611
-94 207 -265 353 -496 422 -56 17 -127 18 -985 20 -509 1 -938 -1 -955 -3z"/>
<path d="M7446 6936 c-80 -30 -169 -126 -208 -226 -61 -158 -15 -425 96 -548
56 -61 122 -85 221 -80 116 7 190 53 254 159 51 87 74 264 50 381 -13 64 -67
184 -103 231 -51 67 -96 89 -188 93 -57 3 -95 0 -122 -10z m197 -92 c60 -43
115 -153 125 -254 24 -251 -57 -420 -215 -446 -135 -21 -237 92 -264 293 -21
157 13 272 109 376 58 61 72 68 145 64 44 -3 67 -10 100 -33z"/>
<path d="M9843 6934 c-95 -35 -196 -167 -222 -292 -32 -152 18 -372 108 -474
18 -21 57 -49 87 -64 49 -24 63 -26 138 -22 111 6 173 39 233 127 62 91 78
151 78 301 -1 117 -3 130 -33 205 -39 96 -88 165 -142 201 -33 22 -53 27 -122
30 -59 3 -95 -1 -125 -12z m173 -73 c148 -67 209 -367 117 -574 -56 -126 -191
-179 -305 -121 -129 66 -187 367 -104 539 30 61 88 131 130 156 40 24 109 24
162 0z"/>
<path d="M11034 6941 c-2 -2 -4 -15 -4 -28 0 -22 4 -23 60 -23 40 0 62 -4 65
-12 2 -7 1 -181 -3 -386 -4 -206 -4 -378 -1 -383 3 -6 84 -8 190 -7 l184 3 -2
60 c-1 33 -5 207 -9 388 l-7 327 59 0 c70 0 87 9 82 41 l-3 24 -303 0 c-167 0
-305 -2 -308 -4z"/>
<path d="M6972 6928 c-7 -9 -12 -115 -14 -319 l-3 -306 -28 -36 c-37 -48 -91
-66 -144 -46 -60 22 -84 81 -92 227 -5 103 -8 117 -23 116 -10 0 -34 -1 -54
-2 l-36 -2 4 -132 c3 -111 7 -141 26 -184 42 -92 115 -146 218 -159 116 -16
196 41 236 168 22 68 23 88 23 377 l0 305 -51 3 c-33 2 -55 -2 -62 -10z"/>
<path d="M8007 6768 c-4 -95 -7 -289 -7 -432 l0 -258 188 4 c169 4 193 7 247
29 79 32 100 67 99 164 -2 127 -71 231 -171 258 -50 13 -54 22 -15 32 43 10
100 52 118 87 20 38 22 128 4 173 -34 90 -102 115 -310 115 l-147 0 -6 -172z
m289 51 c62 -32 83 -79 60 -134 -19 -45 -64 -57 -203 -53 l-108 3 -3 75 c-2
41 0 90 3 109 l6 33 98 -4 c80 -3 107 -8 147 -29z m-15 -370 c92 -23 148 -125
119 -214 -10 -30 -21 -41 -58 -57 -41 -18 -57 -20 -178 -13 l-134 7 0 142 c0
79 3 146 7 150 9 8 195 -3 244 -15z"/>
<path d="M9027 6923 c-2 -5 -5 -156 -6 -338 -1 -181 -4 -359 -7 -395 -8 -90 1
-98 91 -91 l70 6 3 172 2 171 98 7 c53 4 114 11 135 16 46 12 99 57 121 103
19 40 21 151 5 211 -15 52 -82 119 -134 134 -44 12 -371 15 -378 4z m296 -97
c71 -17 102 -44 117 -104 16 -64 5 -116 -32 -147 -27 -23 -37 -25 -129 -25
l-99 0 0 84 c0 45 3 111 6 145 l7 61 36 0 c20 0 62 -6 94 -14z"/>
<path d="M10410 6918 c0 -7 -1 -193 -4 -414 -2 -220 -1 -406 4 -413 4 -7 16
-11 26 -9 18 3 19 18 22 266 1 156 6 262 12 260 12 -4 149 -180 290 -371 l115
-157 42 0 c23 0 45 5 48 10 4 6 -14 34 -38 63 -50 59 -367 481 -367 488 0 3
20 6 45 8 109 5 196 54 216 121 27 90 -33 136 -200 151 -142 12 -211 11 -211
-3z m285 -83 c35 -18 40 -24 40 -54 0 -50 -39 -70 -165 -83 -55 -6 -102 -9
-105 -6 -3 3 -3 42 1 88 l7 82 91 -4 c65 -2 102 -9 131 -23z"/>
<path d="M12378 6648 c-3 -156 -4 -346 -4 -422 l1 -139 300 2 c164 1 301 3
302 5 2 2 0 53 -3 114 l-7 112 -251 2 -251 3 0 300 0 300 -41 3 -41 3 -5 -283z"/>
<path d="M11748 6909 c-10 -6 -18 -793 -8 -802 3 -3 118 -7 255 -8 l250 -3 3
32 3 32 -213 0 c-117 0 -218 4 -224 8 -12 8 -26 323 -15 340 9 15 242 25 338
15 89 -10 103 -5 103 33 0 19 -7 22 -67 26 -38 3 -136 4 -219 3 l-151 -3 -7
81 c-11 149 -9 174 17 181 12 3 118 6 235 6 l212 0 0 29 c0 21 -6 32 -20 36
-25 8 -478 2 -492 -6z"/>
<path d="M3975 6799 c-250 -56 -444 -244 -501 -484 -21 -92 -14 -255 15 -338
37 -105 84 -180 161 -257 113 -114 244 -174 402 -186 293 -23 563 159 655 440
22 69 26 99 26 196 0 98 -4 127 -27 197 -87 265 -337 445 -616 442 -41 -1 -93
-5 -115 -10z m249 -315 c12 -4 16 -20 16 -54 l0 -48 98 -4 c65 -2 105 -8 115
-17 15 -12 17 -42 17 -245 0 -167 -3 -235 -12 -244 -17 -17 -699 -17 -716 0
-9 9 -12 78 -12 250 l0 238 26 10 c14 6 63 10 110 10 l84 0 0 43 c0 24 5 48
12 55 13 13 232 18 262 6z"/>
<path d="M4010 6400 l0 -31 88 3 c87 3 87 3 90 31 l3 27 -90 0 -91 0 0 -30z"/>
</g>
</svg>
